<?xml version="1.0" encoding="UTF-8"?>
<svg id="Layer_1" data-name="Layer 1" xmlns="http://www.w3.org/2000/svg" xmlns:xlink="http://www.w3.org/1999/xlink" viewBox="0 0 1280 769">
  <defs>
    <style>
      .cls-1 {
        fill: url(#linear-gradient-5);
      }

      .cls-2 {
        fill: url(#linear-gradient-4);
      }

      .cls-3 {
        fill: url(#linear-gradient-3);
      }

      .cls-4 {
        fill: url(#linear-gradient-2);
      }

      .cls-5 {
        fill: url(#linear-gradient);
      }

      .cls-6 {
        fill: #fff;
      }
    </style>
    <linearGradient id="linear-gradient" x1="252.05" y1="517.38" x2="255.09" y2="257.02" gradientUnits="userSpaceOnUse">
      <stop offset=".2" stop-color="#c2a882"/>
      <stop offset=".5" stop-color="#987d4f"/>
      <stop offset=".8" stop-color="#c2a882"/>
    </linearGradient>
    <linearGradient id="linear-gradient-2" x1="245.5" y1="517.3" x2="248.54" y2="257.02" xlink:href="#linear-gradient"/>
    <linearGradient id="linear-gradient-3" x1="282.78" y1="517.74" x2="285.82" y2="257.38" xlink:href="#linear-gradient"/>
    <linearGradient id="linear-gradient-4" x1="291.91" y1="517.84" x2="294.95" y2="257.49" xlink:href="#linear-gradient"/>
    <linearGradient id="linear-gradient-5" x1="262.32" y1="517.5" x2="265.36" y2="257.14" xlink:href="#linear-gradient"/>
  </defs>
  <rect y="0" width="1280" height="769"/>
  <g>
    <g>
      <path class="cls-6" d="M347.9,324.61v5.57l17.72-9.39v-6.59l-17.72,10.41ZM374.32,339.55v-6.24h-31.63v58.38h31.63v-6.24h-23.97v-20.17h21.19v-6.25h-21.19v-19.48h23.97Z"/>
      <polygon class="cls-6" points="420.17 385.8 440.66 385.8 440.66 391.7 412.53 391.7 412.53 333.31 420.17 333.31 420.17 385.8"/>
      <path class="cls-6" d="M501.8,333.65h-8.67l-21.21,58.04h8l4.86-12.86h25.35l4.88,12.86h7.99l-21.2-58.04ZM486.86,372.58l10.43-29.54,10.76,29.54h-21.19Z"/>
      <polygon class="cls-6" points="604.98 391.7 597.34 391.7 566.42 345.48 566.42 391.7 558.78 391.7 558.78 333.31 566.42 333.31 597.34 379.87 597.34 333.31 604.98 333.31 604.98 391.7"/>
      <path class="cls-6" d="M691.13,362.5c0-5.55,1.04-10.78,3.82-15.29,2.45-4.51,5.92-8,10.43-10.78,4.51-2.43,9.37-3.82,14.94-3.82,6.25,0,11.8,1.74,16.66,4.51,4.53,3.12,8,7.66,10.43,13.21h-9.37c-1.41-3.47-3.84-6.25-6.96-7.98-2.78-2.1-6.59-3.14-10.76-3.14s-7.66,1.04-11.13,3.14c-3.12,1.74-5.55,4.51-7.63,7.98-1.74,3.47-2.78,7.66-2.78,12.17,0,4.86,1.04,8.7,2.78,12.17,2.08,3.47,4.51,6.25,7.63,8.35,3.12,1.74,6.94,2.78,11.13,2.78s7.63-1.04,10.76-2.78c3.12-2.1,5.55-4.53,6.96-8h9.37c-2.08,5.55-5.55,9.74-10.43,12.86-4.86,3.12-10.41,4.51-16.66,4.51-5.57,0-10.43-1.39-14.94-3.82-4.51-2.43-7.98-5.9-10.43-10.78-2.43-4.51-3.82-9.37-3.82-15.29Z"/>
      <polygon class="cls-6" points="792.91 385.8 813.41 385.8 813.41 391.7 785.63 391.7 785.63 333.31 792.91 333.31 792.91 385.8"/>
      <rect class="cls-6" x="848.46" y="333.46" width="7.63" height="58.65"/>
      <polygon class="cls-6" points="941.96 391.7 934.31 391.7 903.75 345.48 903.75 391.7 896.09 391.7 896.09 333.31 903.75 333.31 934.31 379.87 934.31 333.31 941.96 333.31 941.96 391.7"/>
      <rect class="cls-6" x="981.37" y="333.46" width="7.98" height="58.65"/>
      <path class="cls-6" d="M1026.38,362.5c0-5.55,1.39-10.78,3.82-15.29,2.43-4.51,5.9-8,10.41-10.78,4.53-2.43,9.39-3.82,14.94-3.82,6.25,0,11.82,1.74,16.68,4.51,4.86,3.12,8.33,7.66,10.41,13.21h-9.37c-1.39-3.47-3.82-6.25-6.94-7.98-2.78-2.1-6.62-3.14-10.78-3.14s-7.63,1.04-11.1,3.14c-3.14,1.74-5.57,4.51-7.66,7.98-1.74,3.47-2.78,7.66-2.78,12.17,0,4.86,1.04,8.7,2.78,12.17,2.08,3.47,4.51,6.25,7.66,8.35,3.47,1.74,6.94,2.78,11.1,2.78s8-1.04,10.78-2.78c3.12-2.1,5.55-4.53,6.94-8h9.37c-2.08,5.55-5.55,9.74-10.41,12.86-4.86,3.12-10.43,4.51-16.68,4.51-5.55,0-10.41-1.39-14.94-3.82-4.16-2.43-7.98-5.9-10.41-10.78-2.43-4.51-3.82-9.37-3.82-15.29Z"/>
    </g>
    <g>
      <path class="cls-5" d="M287.27,411.07c-3.87,4.31-7.43,7.66-9.81,9.77-1.88,1.65-3.03,2.55-3.03,2.55,0,0-25.06,22.28-45.02,42.94-19.97,20.66-32.04,55.79-32.04,55.79l.15-3.71c-1.05-13.02,3.31-27.68,9.92-41.61,11.79-24.88,30.73-47.47,38.77-54.34,5.52-4.71,11.02-10.05,15.44-14.54,5.62-5.71,9.51-10.07,9.51-10.07.21-.24.42-.49.62-.73,19.01-22.48,16.93-37.75,16.93-37.75,1.33-16.93-15.37-33.18-24.62-40.81-3.49-2.89-5.92-4.54-5.92-4.54-2.54-2.08-4.87-4.12-7.01-6.11-3.41-3.17-6.35-6.22-8.86-9.11-14.28-16.39-15.36-27.81-15.36-27.81,16.97,18.77,25.92,25.02,33.2,29.09,4.75,2.66,8.79,4.38,13.88,8.06.15.1.3.22.46.33,13.19,9.72,32.28,21.03,34.01,54.03,1.03,19.57-11.14,37.35-21.22,48.57Z"/>
      <path class="cls-4" d="M264.57,389.14c-2.03,3.06-4.48,6.3-7.41,9.71,0,0-1.06,1.19-2.87,3.13-.41-.34-.63-.51-.63-.51-28.36-30.94-25.68-52.75-20.47-68.71,2-6.12,6.4-12.34,11.08-17.67.81.56,6.76,4.75,13.19,11.12-14,17.64-12.53,39.21,7.11,62.93Z"/>
      <path class="cls-3" d="M319.94,253.3c-14.58,23.78-31.27,39.9-45.92,54.84-2.17,2.21-4.29,4.4-6.35,6.58-1.22,1.28-2.41,2.56-3.58,3.84-3.49-2.89-5.92-4.54-5.92-4.54-2.54-2.08-4.87-4.12-7.01-6.11.99-.95,1.93-1.82,2.81-2.62,3.47-3.13,5.94-5.03,5.94-5.03l.23-.18,59.8-46.78Z"/>
      <path class="cls-2" d="M324.11,461.86c-3.94-5.44-27.78-25.5-46.65-41.02-2.44-2.01-4.79-3.93-7-5.74-3.3-2.7-6.29-5.13-8.81-7.18,5.62-5.71,9.51-10.07,9.51-10.07.21-.24.42-.49.62-.73,2.39,2.44,4.97,4.9,7.74,7.37,2.43,2.18,5.02,4.38,7.75,6.58.61.49,1.23.99,1.85,1.48,34.99,37.02,34.99,49.31,34.99,49.31Z"/>
      <circle class="cls-1" cx="265.28" cy="263.71" r="16.83"/>
    </g>
  </g>
</svg>